<svg xmlns="http://www.w3.org/2000/svg" viewBox="0 0 1000 1000">
  <defs>
    <linearGradient id="bg2" x1="0" y1="1" x2="1" y2="0">
      <stop offset="0" stop-color="#e8f0ec"/>
      <stop offset="1" stop-color="#c6dddc"/>
    </linearGradient>
    <filter id="shadow2" x="-30%" y="-30%" width="160%" height="160%">
      <feDropShadow dx="0" dy="20" stdDeviation="20" flood-color="#173943" flood-opacity=".25"/>
    </filter>
  </defs>
  <rect width="1000" height="1000" fill="url(#bg2)"/>
  <path d="M0 790c180-104 322-104 500 0s320 104 500 0v210H0z" fill="#254f5d" opacity=".12"/>
  <g fill="none" stroke="#397586" stroke-linecap="round" stroke-linejoin="round">
    <path d="M86 346h142c42 0 58 22 58 62v34" stroke-width="28"/>
    <path d="M914 346H772c-42 0-58 22-58 62v34" stroke-width="28"/>
    <path d="M102 308l-40 38 40 38M898 308l40 38-40 38" stroke-width="18"/>
  </g>
  <g filter="url(#shadow2)">
    <rect x="270" y="264" width="460" height="494" rx="54" fill="#fffdf7"/>
  </g>
  <rect x="302" y="296" width="396" height="430" rx="31" fill="#f4f0e8" stroke="#fff" stroke-width="8"/>
  <g fill="none" stroke="#254f5d" stroke-linecap="round">
    <path d="M362 377h276M362 427h276M362 477h276" stroke-width="24"/>
    <circle cx="500" cy="610" r="75" stroke-width="22"/>
    <path d="M500 535c25 32 28 63 8 91M575 610c-32 25-63 28-91 8M500 685c-25-32-28-63-8-91M425 610c32-25 63-28 91-8" stroke-width="16"/>
  </g>
  <g fill="#6fb99a">
    <circle cx="646" cy="681" r="10"/>
    <circle cx="615" cy="681" r="10" opacity=".45"/>
  </g>
</svg>
